<?xml version="1.0" encoding="utf-8"?>
<!-- Generator: Adobe Illustrator 16.0.0, SVG Export Plug-In . SVG Version: 6.00 Build 0)  -->
<!DOCTYPE svg PUBLIC "-//W3C//DTD SVG 1.1 Tiny//EN" "http://www.w3.org/Graphics/SVG/1.1/DTD/svg11-tiny.dtd">
<svg version="1.1" baseProfile="tiny" id="Camada_1"
	 xmlns="http://www.w3.org/2000/svg" xmlns:xlink="http://www.w3.org/1999/xlink" x="0px" y="0px" width="232.439px"
	 height="285.396px" viewBox="0 0 232.439 285.396" xml:space="preserve">
<g>
	<ellipse fill="#E7E8EA" cx="111.153" cy="268.248" rx="28.15" ry="4.944"/>
	<g>
		<g>
			<path fill="#0058A1" d="M188.406,118.118c0-42.667-34.592-77.253-77.25-77.253V76.52c22.977,0,41.602,18.625,41.602,41.598
				c0,22.975-18.625,41.599-41.602,41.599v35.643v71.066c0,0,36.455-58.278,50.199-77.904
				C191.896,144.921,188.406,118.118,188.406,118.118z"/>
			<path fill="#0072B7" d="M111.156,76.52V40.865c-42.659,0-77.255,34.586-77.255,77.253c0,0-3.487,26.804,27.056,70.403
				c13.747,19.626,50.199,77.904,50.199,77.904v-71.066v-35.643c-22.973,0-41.6-18.624-41.6-41.599
				C69.557,95.145,88.184,76.52,111.156,76.52z"/>
		</g>
		<g>
			<path fill="#F7F6F6" d="M54.853,119.494c0,31.092,25.205,56.298,56.297,56.298V63.194
				C80.058,63.194,54.853,88.396,54.853,119.494z"/>
			<path fill="#E4E4E3" d="M111.15,63.194v112.598c31.094,0,56.301-25.206,56.301-56.298
				C167.451,88.396,142.244,63.194,111.15,63.194z"/>
		</g>
	</g>
	<g>
		<rect x="105.021" y="81.106" width="3.924" height="20.979"/>
		<rect x="112.391" y="81.106" width="3.924" height="20.979"/>
		<path d="M75.104,143.827l1.38-25.589c0.137-2.55-0.26-4.939-1.178-7.104c-0.527-1.239-1.205-2.385-2.262-3.829
			c-1.767-2.411-2.687-5.543-2.592-8.82c0.22-7.752,3.739-11.452,5.232-12.675c1.907-1.542,3.868-1.547,5.806-0.03
			c1.51,1.229,5.048,4.928,5.27,12.706c0.093,3.277-0.827,6.409-2.593,8.819c-1.059,1.446-1.736,2.593-2.261,3.83
			c-0.918,2.162-1.316,4.553-1.179,7.104l1.39,25.686c0.918,8.874,7.522,12.847,13.662,12.847c6.853,0,12.427-5.573,12.427-12.425
			v-30.855l-3.688-2.046c-2.284-1.268-3.703-3.678-3.705-6.218l0.907-24.047l-3.921-0.148l-0.908,24.121
			c0,4.039,2.193,7.765,5.724,9.724l1.667,0.925v28.545c0,4.688-3.815,8.501-8.503,8.501c-4.057,0-9.047-2.442-9.75-9.232
			l-1.382-25.587c-0.104-1.948,0.189-3.751,0.873-5.36c0.401-0.945,0.943-1.855,1.814-3.044c2.279-3.109,3.469-7.106,3.35-11.251
			c-0.266-9.399-4.784-14.067-6.744-15.661c-3.392-2.655-7.399-2.64-10.73,0.053c-1.92,1.573-6.413,6.241-6.678,15.607
			c-0.121,4.144,1.068,8.139,3.348,11.252c0.87,1.188,1.413,2.099,1.815,3.045c0.673,1.586,0.975,3.438,0.871,5.358l-1.373,25.493
			c-0.538,5.205-3.522,7.868-6.699,8.859c0.8,1.112,1.632,2.2,2.508,3.25C71.07,153.879,74.46,150.063,75.104,143.827z"/>
		<path d="M155.139,155.821v-2.974c-4.523,0-8.369-3.512-8.787-8.009l-0.049-13.532l3.781-1.811
			c4.797-2.293,7.238-7.857,5.676-12.941l-9.436-30.739c-0.643-2.102-2.16-3.832-4.152-4.745L142,80.991
			c-1.9-0.871-4.539-0.273-6.162,0.767c-1.336,0.858-2.074,2.051-2.074,3.354v59.652c0,4.456-3.627,8.083-8.084,8.083
			c-4.688,0-8.5-3.813-8.5-8.501v-28.545l1.668-0.925c3.529-1.96,5.723-5.686,5.721-9.798l-0.908-24.047l-3.922,0.148l0.908,23.973
			c0,2.613-1.42,5.023-3.703,6.292l-3.689,2.046v30.855c0,6.852,5.576,12.425,12.428,12.425c6.621,0,12.006-5.387,12.006-12.007
			V85.265c0.422-0.49,2.133-0.956,2.674-0.709l0.17,0.079c0.982,0.45,1.729,1.3,2.045,2.331l9.434,30.738
			c0.994,3.242-0.563,6.788-3.621,8.251l-6.021,2.88l0.061,16.101l0.006,0.157c0.53,6.284,5.694,11.247,11.915,11.639
			C154.614,156.431,154.88,156.129,155.139,155.821z"/>
	</g>
	<g>
		<path d="M50.467,194.831c2.989-2.001,5.761-3.036,8.316-3.106c3.123-0.109,5.632,1.252,7.528,4.084
			c1.896,2.833,2.199,5.671,0.906,8.516c-1.039,2.336-3.053,4.505-6.041,6.505c-2.989,2.001-5.761,3.036-8.316,3.106
			c-3.123,0.11-5.632-1.251-7.528-4.083c-1.896-2.833-2.198-5.672-0.906-8.517C45.465,199,47.479,196.832,50.467,194.831z
			 M51.448,196.296c-5.997,4.014-7.538,8.199-4.622,12.555c2.903,4.337,7.353,4.498,13.35,0.483
			c5.997-4.015,7.544-8.189,4.641-12.526C61.901,192.453,57.445,192.281,51.448,196.296z"/>
		<path d="M49.492,170.629l0.997,1.622l-11.493,22.172l18.233-11.208l0.942,1.532l-20.967,12.889l-0.997-1.623l11.475-22.201
			l-18.233,11.207l-0.923-1.502L49.492,170.629z"/>
		<path d="M28.909,156.074c2.308-1.058,4.067-1.76,5.278-2.108c2.582-0.743,4.693-0.508,6.334,0.705
			c1.292,0.959,2.546,2.764,3.76,5.414l2.996,6.539l-22.375,10.252l-2.981-6.508c-1.224-2.671-1.788-4.805-1.691-6.4
			c0.154-2.035,1.354-3.787,3.603-5.257C24.909,158.01,26.601,157.131,28.909,156.074z M29.658,157.708
			c-2.671,1.224-4.417,2.127-5.236,2.709c-1.368,0.963-2.132,2.089-2.292,3.377c-0.196,1.436,0.269,3.381,1.395,5.838l2.232,4.873
			l19.137-8.769l-2.232-4.872c-1.126-2.457-2.285-4.085-3.479-4.883c-1.101-0.71-2.453-0.867-4.055-0.469
			C34.153,155.752,32.33,156.484,29.658,157.708z"/>
		<path d="M34.692,132.58l4.11,14.741l-23.708,6.609l-4.109-14.741l1.698-0.473l3.626,13.008l8.899-2.481l-3.172-11.378l1.63-0.455
			l3.172,11.378l9.782-2.727l-3.627-13.008L34.692,132.58z"/>
		<path d="M11.705,103.858l-0.449,7.814l22.811,1.311l-0.101,1.76l-22.811-1.311l-0.449,7.814l-1.76-0.101l1-17.39L11.705,103.858z"
			/>
		<path d="M39.314,88.519L34.996,103.2l-23.611-6.945l4.319-14.681l1.691,0.498l-3.811,12.956l8.862,2.607l3.333-11.332l1.624,0.478
			L24.07,98.111l9.742,2.866l3.811-12.956L39.314,88.519z"/>
		<path d="M50.861,68.794l-0.952,1.525L33.097,59.832l12.931,16.71l-0.952,1.526L24.46,73.81L41.213,84.26l-0.952,1.526
			L19.379,72.76l0.952-1.525l23.135,4.749l-14.439-18.69l0.952-1.526L50.861,68.794z"/>
	</g>
	<g>
		<path d="M115.414,39.464l-8.112,1.158l-8.473-10.458c-0.689-0.865-1.267-1.415-1.731-1.647c-0.465-0.233-1.187-0.279-2.164-0.14
			l-1.71,0.244l1.96,13.731l-6.988,0.998L83.327,9.241l12.509-1.786c3.519-0.502,6.438-0.071,8.761,1.292
			c2.541,1.5,4.055,3.958,4.543,7.379c0.303,2.118,0,4.081-0.904,5.888c-0.906,1.808-2.299,3.229-4.179,4.261L115.414,39.464z
			 M102.16,17.173c-0.349-2.443-2.12-3.437-5.312-2.981l-5.668,0.809l1.067,7.476l5.668-0.809
			C101.107,21.212,102.523,19.714,102.16,17.173z"/>
		<path d="M137.703,44.502l-23.232-4.395l6.404-33.853l23.232,4.395l-1.295,6.838l-16.295-3.083l-1.203,6.354l14.211,2.688
			l-1.238,6.548l-14.211-2.688l-1.377,7.275l16.297,3.083L137.703,44.502z"/>
		<path d="M165.359,47.718c-1.637,2.967-4.125,4.714-7.459,5.241c-3.084,0.478-6.152-0.126-9.205-1.812
			c-6.541-3.61-8.918-8.906-7.129-15.889l6.479,2.054c-0.805,3.428,0.494,6.081,3.895,7.958c1.297,0.716,2.602,1.042,3.914,0.978
			c1.549-0.084,2.66-0.731,3.328-1.941c0.777-1.411-0.037-3.271-2.447-5.579c-3.797-3.675-5.98-5.952-6.547-6.829
			c-2.014-3.028-2.16-6.097-0.441-9.208c1.527-2.766,3.807-4.344,6.844-4.736c2.754-0.359,5.541,0.241,8.365,1.8
			c2.766,1.527,4.738,3.331,5.922,5.412c1.18,2.081,1.693,4.657,1.539,7.729l-6.674-0.471c-0.006-1.694-0.299-3.069-0.881-4.124
			c-0.584-1.055-1.609-1.988-3.078-2.799c-1.01-0.557-2.037-0.842-3.082-0.855c-1.311-0.009-2.236,0.477-2.775,1.456
			c-0.637,1.152,0.25,2.882,2.66,5.19c3.529,3.34,5.689,5.66,6.477,6.958C167.01,41.394,167.109,44.549,165.359,47.718z"/>
		<path d="M196.271,55.657l-6.654-7.022L169.66,67.547l-4.855-5.123l19.957-18.913l-6.656-7.022l5.053-4.788l18.164,19.167
			L196.271,55.657z"/>
		<path d="M187.557,98.067l-3.436-6.836l6.32-6.658l-5.033-10.011l-9.113,1.102l-3.414-6.792l36.725-3.655l2.748,5.469
			L187.557,98.067z M194.934,79.773l6.74-7.145l-9.732,1.191L194.934,79.773z"/>
		<path d="M203.617,119.135c-9.65,1.318-15.07-2.375-16.26-11.081c-1.193-8.738,3.035-13.766,12.688-15.084l20.051-2.739
			l0.955,6.994l-19.66,2.685c-2.576,0.352-4.418,0.969-5.527,1.851c-1.469,1.164-2.039,2.936-1.715,5.316
			c0.34,2.477,1.354,4.066,3.043,4.766c1.234,0.529,3.189,0.611,5.863,0.246l19.66-2.686l0.955,6.994L203.617,119.135z"/>
		<path d="M183.701,149.77l1.678-8.021l12.721-4.4c1.049-0.353,1.762-0.708,2.139-1.065c0.377-0.358,0.668-1.021,0.869-1.987
			l0.354-1.691l-13.576-2.839l1.445-6.909l33.725,7.052l-2.588,12.369c-0.727,3.479-2.127,6.077-4.201,7.795
			c-2.275,1.877-5.104,2.463-8.486,1.755c-2.094-0.438-3.836-1.391-5.227-2.858c-1.391-1.468-2.252-3.262-2.582-5.381
			L183.701,149.77z M209.176,144.91c2.416,0.505,3.953-0.821,4.613-3.977l1.172-5.604l-7.391-1.546l-1.174,5.604
			C205.738,142.544,206.664,144.385,209.176,144.91z"/>
		<path d="M170.621,175.707l3.275-6.914l9.139,0.889l4.799-10.125l-6.475-6.509l3.256-6.869l25.469,26.708l-2.621,5.531
			L170.621,175.707z M189.584,170.273l9.777,0.92l-6.924-6.942L189.584,170.273z"/>
		<path d="M155.865,196.603l3.199-4.689l23.322,0.668l-16.23-11.068l3.977-5.832l28.465,19.412l-3.227,4.73l-23.293-0.709
			l16.23,11.066l-3.977,5.832L155.865,196.603z"/>
		<path d="M162.682,236.403l5.27-8.114l-23.057-14.975l3.844-5.92l23.059,14.975l5.27-8.113l5.836,3.79l-14.383,22.147
			L162.682,236.403z"/>
		<path d="M125.379,243.819l12.699-19.943l29.063,18.508l-12.701,19.943l-5.871-3.739l8.91-13.989l-5.455-3.474l-7.768,12.199
			l-5.621-3.579l7.768-12.199l-6.244-3.978l-8.908,13.989L125.379,243.819z"/>
	</g>
</g>
</svg>
